{
	"asset":{
		"generator":"Khronos glTF Blender I/O v4.4.55",
		"version":"2.0"
	},
	"scene":0,
	"scenes":[
		{
			"name":"Scene",
			"nodes":[
				4
			]
		}
	],
	"nodes":[
		{
			"mesh":0,
			"name":"Helmet_Material_0",
			"translation":[
				-2.6999995708465576,
				2.609999656677246,
				0.17999988794326782
			]
		},
		{
			"children":[
				0
			],
			"name":"Helmet",
			"rotation":[
				-0.2483644038438797,
				0,
				0,
				0.9686667919158936
			],
			"scale":[
				100,
				100,
				100
			],
			"translation":[
				274.637451171875,
				-94.61112976074219,
				243.0004425048828
			]
		},
		{
			"children":[
				1
			],
			"name":"RootNode",
			"rotation":[
				-1,
				0,
				0,
				7.105427357601002e-15
			]
		},
		{
			"children":[
				2
			],
			"name":"3ec37ebc8b424ad2adcd16fe4f641458.fbx",
			"rotation":[
				0.70710688829422,
				0,
				0,
				0.7071066498756409
			]
		},
		{
			"children":[
				3
			],
			"name":"Sketchfab_model",
			"rotation":[
				1,
				0,
				0,
				0
			],
			"scale":[
				0.10000000149011612,
				0.10000000149011612,
				0.10000000149011612
			]
		}
	],
	"materials":[
		{
			"name":"Material.002",
			"normalTexture":{
				"index":0
			},
			"occlusionTexture":{
				"index":1
			},
			"pbrMetallicRoughness":{
				"baseColorTexture":{
					"index":2
				},
				"metallicRoughnessTexture":{
					"index":1
				}
			}
		}
	],
	"meshes":[
		{
			"name":"Helmet_Material_0",
			"primitives":[
				{
					"attributes":{
						"POSITION":0,
						"NORMAL":1,
						"TEXCOORD_0":2,
						"TEXCOORD_1":3,
						"TEXCOORD_2":4,
						"TEXCOORD_3":5
					},
					"indices":6,
					"material":0
				}
			]
		}
	],
	"textures":[
		{
			"sampler":0,
			"source":0
		},
		{
			"sampler":0,
			"source":1
		},
		{
			"sampler":0,
			"source":2
		}
	],
	"images":[
		{
			"mimeType":"image/png",
			"name":"Material_normal",
			"uri":"Material_normal.png"
		},
		{
			"mimeType":"image/png",
			"name":"Material_metallicRoughness",
			"uri":"Material_metallicRoughness.png"
		},
		{
			"mimeType":"image/png",
			"name":"Material_baseColor",
			"uri":"Material_baseColor.png"
		}
	],
	"accessors":[
		{
			"bufferView":0,
			"componentType":5126,
			"count":23329,
			"max":[
				2.5919599533081055,
				1.6772947311401367,
				0.4366687536239624
			],
			"min":[
				-2.5919599533081055,
				-3.0713613033294678,
				-4.692028999328613
			],
			"type":"VEC3"
		},
		{
			"bufferView":1,
			"componentType":5126,
			"count":23329,
			"type":"VEC3"
		},
		{
			"bufferView":2,
			"componentType":5126,
			"count":23329,
			"type":"VEC2"
		},
		{
			"bufferView":3,
			"componentType":5126,
			"count":23329,
			"type":"VEC2"
		},
		{
			"bufferView":4,
			"componentType":5126,
			"count":23329,
			"type":"VEC2"
		},
		{
			"bufferView":5,
			"componentType":5126,
			"count":23329,
			"type":"VEC2"
		},
		{
			"bufferView":6,
			"componentType":5123,
			"count":34572,
			"type":"SCALAR"
		}
	],
	"bufferViews":[
		{
			"buffer":0,
			"byteLength":279948,
			"byteOffset":0,
			"target":34962
		},
		{
			"buffer":0,
			"byteLength":279948,
			"byteOffset":279948,
			"target":34962
		},
		{
			"buffer":0,
			"byteLength":186632,
			"byteOffset":559896,
			"target":34962
		},
		{
			"buffer":0,
			"byteLength":186632,
			"byteOffset":746528,
			"target":34962
		},
		{
			"buffer":0,
			"byteLength":186632,
			"byteOffset":933160,
			"target":34962
		},
		{
			"buffer":0,
			"byteLength":186632,
			"byteOffset":1119792,
			"target":34962
		},
		{
			"buffer":0,
			"byteLength":69144,
			"byteOffset":1306424,
			"target":34963
		}
	],
	"samplers":[
		{
			"magFilter":9729,
			"minFilter":9987
		}
	],
	"buffers":[
		{
			"byteLength":1375568,
			"uri":"kabuto.bin"
		}
	]
}
